<?xml version="1.0" standalone="no"?>
<!DOCTYPE svg PUBLIC "-//W3C//DTD SVG 1.0//EN" "http://www.w3.org/TR/2001/REC-SVG-20010904/DTD/svg10.dtd">
<svg xmlns="http://www.w3.org/2000/svg" xmlns:xlink="http://www.w3.org/1999/xlink" id="body_1" width="256" height="192">

<g transform="matrix(0.375 0 0 0.375 32.000008 -0)">
    <path d="M305.62 256C 305.62 276.06943 293.5305 294.16266 274.98874 301.8429C 256.44702 309.52313 235.10458 305.27786 220.91336 291.08664C 206.72214 276.89542 202.47687 255.55298 210.1571 237.01126C 217.83734 218.46953 235.93059 206.38 256 206.38C 269.1609 206.37735 281.78345 211.60431 291.08957 220.91043C 300.39572 230.21657 305.62265 242.83914 305.62 256z" stroke="none" fill="#5B5B5F" fill-rule="nonzero" />
    <path d="M405.47 424.29C 349.8 424.29 271.86 394.54 196.98 344.62C 141.24 307.5 94.47 264 65.18 222C 34.18 177.45999 26.240002 139.11 42.97 114C 54.44 96.83 76.42 87.71 106.5 87.71C 162.2 87.71 240.11 117.509995 315.02002 167.43C 370.76 204.53 417.53 248.07 446.79 290C 477.86002 334.56 485.79 372.89 469.04 398C 457.53 415.22 435.58 424.29 405.47 424.29zM106.47 107.619995C 90.340004 107.619995 69.11 110.619995 59.47 125.09C 47.77 142.64 55.77 173.81999 81.47 210.64C 109.38 250.58 154.3 292.26 208 328C 278.68 375.12 354.31 404.34 405.45 404.34C 421.58002 404.34 442.84003 401.34 452.45 386.88998C 464.15002 369.31998 456.12003 338.15 430.45 301.33997C 402.59 261.45 357.67 219.74 304 184C 233.31 136.88 157.61 107.62 106.5 107.62z" stroke="none" fill="#5B5B5F" fill-rule="nonzero" />
    <path d="M106.31 420.45C 74.05 420.45 50.909996 410.75 39.369995 392.45C 23.3 366.88 32.2 328.78 64.39 285C 94.7 243.85 142.63 201.5 199.26 165.85C 273.21 119.310005 350.36 91.50001 405.7 91.50001C 437.93002 91.50001 461.1 101.200005 472.64 119.50001C 488.64 145.04001 479.81003 183.15001 447.58002 226.87001C 417.27002 268.06 369.37003 310.37 312.74002 346.04C 238.77 392.66 161.65 420.45 106.31 420.45zM405.71 111.45001C 354.71 111.45001 279.71 138.77002 209.87999 182.75002C 155.3 217.13 109.32 257.65 80.43 296.87C 53.78 333 45 364 56.23 381.77C 65.95 397.28998 88.82 400.55 106.31 400.55C 157.25 400.55 232.31 373.21 302.11 329.22998C 356.71997 294.87 402.69998 254.35999 431.56 215.12997C 458.2 179 467 148 455.79 130.19C 446 114.71 423.16 111.45 405.71 111.45z" stroke="none" fill="#5B5B5F" fill-rule="nonzero" />
    <path d="M256 512C 196.3 512 149.51999 399.54 149.51999 256C 149.51999 112.45999 196.3 0 256 0C 315.7 0 362.48 112.44 362.48 256C 362.48 399.56 315.7 512 256 512zM256 19.920013C 214.18 19.920013 169.45999 114.780014 169.45999 255.92001C 169.45999 397.06 214.18 492.12 256 492.12C 297.82 492.12 342.57 397.21 342.57 256C 342.57 114.79001 297.78 19.92 256 19.92z" stroke="none" fill="#5B5B5F" fill-rule="nonzero" />
</g>
</svg>